<svg width="34" height="22" viewBox="0 0 34 22" fill="none" xmlns="http://www.w3.org/2000/svg">
<path d="M12.9562 20.8951L12.9469 20.8916L12.9178 20.8776C12.7469 20.795 12.5775 20.7102 12.4095 20.6232C10.3893 19.568 8.50141 18.3284 6.77709 16.9249C3.72335 14.4201 0.487793 10.7031 0.487793 6.12508C0.487793 2.70908 3.75786 8.27764e-05 7.70476 8.27764e-05C8.80197 -0.00464155 9.88628 0.208147 10.877 0.622622C11.8678 1.0371 12.7395 1.6426 13.4274 2.39408C14.1154 1.64244 14.9873 1.03685 15.9783 0.622368C16.9693 0.207886 18.0539 -0.00481723 19.1513 8.27764e-05C23.0969 8.27764e-05 26.367 2.70908 26.367 6.12508C26.367 10.7042 23.1314 14.4212 20.0777 16.9237C18.3534 18.3272 16.4655 19.5669 14.4453 20.6221C14.2773 20.7094 14.1078 20.7946 13.937 20.8776L13.9078 20.8916L13.8985 20.8962L13.8945 20.8974C13.7506 20.9644 13.5902 20.9995 13.4274 20.9995C13.2645 20.9995 13.1041 20.9644 12.9602 20.8974L12.9562 20.8951Z" fill="white"/>
<path d="M24.6816 18.9668L28.3103 12.7335H25.8077V8.70012L22.0538 14.9335H24.6816V18.9668ZM25.1821 21.1668C24.0281 21.1668 22.9437 20.9743 21.9287 20.5893C20.9138 20.2043 20.0309 19.6818 19.2801 19.0218C18.5293 18.3618 17.935 17.5857 17.497 16.6935C17.0591 15.8012 16.8401 14.8479 16.8401 13.8335C16.8401 12.819 17.0591 11.8657 17.497 10.9735C17.935 10.0812 18.5293 9.30512 19.2801 8.64512C20.0309 7.98512 20.9138 7.46262 21.9287 7.07762C22.9437 6.69262 24.0281 6.50012 25.1821 6.50012C26.3361 6.50012 27.4205 6.69262 28.4355 7.07762C29.4504 7.46262 30.3333 7.98512 31.0841 8.64512C31.8348 9.30512 32.4292 10.0812 32.8672 10.9735C33.3051 11.8657 33.5241 12.819 33.5241 13.8335C33.5241 14.8479 33.3051 15.8012 32.8672 16.6935C32.4292 17.5857 31.8348 18.3618 31.0841 19.0218C30.3333 19.6818 29.4504 20.2043 28.4355 20.5893C27.4205 20.9743 26.3361 21.1668 25.1821 21.1668Z" fill="#894189"/>
<path d="M25.1062 18.5001L28.405 12.8334H26.1299V9.16675L22.7173 14.8334H25.1062V18.5001ZM25.5612 20.5001C24.5121 20.5001 23.5262 20.3251 22.6036 19.9751C21.6809 19.6251 20.8783 19.1501 20.1958 18.5501C19.5132 17.9501 18.9729 17.2445 18.5748 16.4334C18.1766 15.6223 17.9775 14.7556 17.9775 13.8334C17.9775 12.9112 18.1766 12.0445 18.5748 11.2334C18.9729 10.4223 19.5132 9.71675 20.1958 9.11675C20.8783 8.51675 21.6809 8.04175 22.6036 7.69175C23.5262 7.34175 24.5121 7.16675 25.5612 7.16675C26.6102 7.16675 27.5961 7.34175 28.5188 7.69175C29.4415 8.04175 30.2441 8.51675 30.9266 9.11675C31.6091 9.71675 32.1495 10.4223 32.5476 11.2334C32.9457 12.0445 33.1448 12.9112 33.1448 13.8334C33.1448 14.7556 32.9457 15.6223 32.5476 16.4334C32.1495 17.2445 31.6091 17.9501 30.9266 18.5501C30.2441 19.1501 29.4415 19.6251 28.5188 19.9751C27.5961 20.3251 26.6102 20.5001 25.5612 20.5001Z" fill="white"/>
</svg>
